<?xml version="1.0" standalone="no"?>
<!DOCTYPE svg PUBLIC "-//W3C//DTD SVG 1.1//EN" "http://www.w3.org/Graphics/SVG/1.1/DTD/svg11.dtd" >
<svg xmlns="http://www.w3.org/2000/svg">
<metadata>
This is a custom SVG webfont generated by Font Squirrel.
Copyright   : 1995 Hans Reichel published by FontShop International for the FontFont library
</metadata>
<defs>
<font id="webfontmQly3JFr" horiz-adv-x="450" >
<font-face units-per-em="1000" ascent="800" descent="-200" />
<missing-glyph horiz-adv-x="265" />
<glyph unicode=" "  horiz-adv-x="265" />
<glyph unicode="&#x09;" horiz-adv-x="265" />
<glyph unicode="&#xa0;" horiz-adv-x="265" />
<glyph unicode="!" horiz-adv-x="274" d="M202 688l-22 -464h-63l-22 464h107zM206 51q0 -24 -17 -41.5t-41 -17.5q-23 0 -40.5 17.5t-17.5 41.5q0 25 17 42t41 17q25 0 41.5 -17t16.5 -42z" />
<glyph unicode="&#x22;" horiz-adv-x="360" d="M159 672l-23 -246h-39l-22 246q13 24 42 24t42 -24zM301 672l-22 -246h-39l-22 246q14 24 42 24t41 -24z" />
<glyph unicode="#" d="M431 423h-98l-21 -140h90v-49h-98l-35 -234h-49l35 234h-106l-37 -234h-48l35 234h-89v49h97l21 139h-89v49h97l33 217h49l-33 -217h107l33 217h49l-33 -216h90v-49zM284 423h-106l-22 -140h107z" />
<glyph unicode="$" d="M381 177q0 -76 -41.5 -126t-110.5 -59l10 -116h-62l10 114q-80 3 -127 40l23 71q42 -34 105 -34q44 0 72.5 27t28.5 72q0 46 -23.5 79.5t-82.5 80.5q-116 94 -116 195q0 71 39 118.5t101 56.5l-9 111h59l-9 -109q70 -4 109 -40l-20 -62q-36 32 -93 32q-41 0 -66 -26 t-25 -71q0 -43 22 -74.5t80 -77.5q64 -50 95 -96t31 -106z" />
<glyph unicode="%" horiz-adv-x="702" d="M652 226q0 -44 -4.5 -82t-16 -75t-35.5 -58.5t-58 -21.5q-35 0 -59 21.5t-35.5 58.5t-16 75t-4.5 82q0 235 115 235q114 0 114 -235zM278 463q0 -236 -114 -236t-114 236t114 236t114 -236zM598 226q3 195 -60 195q-60 0 -60 -195q0 -190 60 -190t60 190zM224 463 q0 196 -60 196t-60 -196q0 -189 60 -189t60 189zM470 682l-196 -688l-44 12l196 688z" />
<glyph unicode="&#x26;" horiz-adv-x="526" d="M521 446q-34 -22 -97 -39l1 -377q-47 -40 -158 -40q-97 0 -157 53.5t-60 145.5q0 70 39 120.5t100 76.5v2q-103 42 -103 150q0 68 42.5 114t119.5 46q80 0 125 -40l-25 -56q-37 30 -85 30q-43 0 -68 -25.5t-25 -73.5q0 -47 30.5 -76.5t74.5 -29.5q96 0 220 79zM342 65 v320q-112 -31 -157.5 -72t-45.5 -116q0 -65 34.5 -105.5t96.5 -40.5q46 0 72 14z" />
<glyph unicode="'" horiz-adv-x="231" d="M172 672l-26 -246h-45l-26 246q18 24 48 24q33 0 49 -24z" />
<glyph unicode="(" horiz-adv-x="311" d="M286 -199l-45 -28q-98 143 -142 264t-44 249t44 248t142 264l45 -28q-143 -235 -143 -484q0 -248 143 -485z" />
<glyph unicode=")" horiz-adv-x="311" d="M256 286q0 -128 -44 -248.5t-142 -264.5l-45 28q142 235 142 485q0 251 -142 484l45 28q98 -144 142 -264.5t44 -247.5z" />
<glyph unicode="*" horiz-adv-x="387" d="M347 680q0 -16 -12 -27.5t-28 -11.5t-28 11.5t-12 27.5q0 17 11.5 28.5t28.5 11.5t28.5 -11.5t11.5 -28.5zM177 557q0 -16 -11.5 -27.5t-28.5 -11.5q-16 0 -27.5 11.5t-11.5 27.5q0 17 11.5 28.5t27.5 11.5q17 0 28.5 -11.5t11.5 -28.5zM306 557q0 -16 -11.5 -27.5 t-27.5 -11.5q-17 0 -28.5 11.5t-11.5 27.5q0 17 11.5 28.5t28.5 11.5q16 0 27.5 -11.5t11.5 -28.5zM242 757q0 -17 -12 -28.5t-28 -11.5t-27.5 11.5t-11.5 28.5q0 16 11.5 27.5t27.5 11.5t28 -11.5t12 -27.5zM137 680q0 -16 -11.5 -27.5t-27.5 -11.5t-28 11.5t-12 27.5 q0 17 11.5 28.5t28.5 11.5q16 0 27.5 -11.5t11.5 -28.5zM233 646q0 -13 -9 -21.5t-22 -8.5t-22 8.5t-9 21.5t9 22t22 9t22 -9t9 -22z" />
<glyph unicode="+" d="M391 305h-136v-174h-60v174h-136v60h135v174h60v-174h137v-60z" />
<glyph unicode="," horiz-adv-x="234" d="M179 80l-125 -252h-50l75 251q19 33 60 33q37 0 40 -32z" />
<glyph unicode="-" horiz-adv-x="296" d="M247 295h-198v78h198v-78z" />
<glyph unicode="." horiz-adv-x="226" d="M171 54q0 -25 -17 -42t-41 -17t-41.5 17t-17.5 41t17.5 41.5t40.5 17.5q24 0 41.5 -17t17.5 -41z" />
<glyph unicode="/" horiz-adv-x="486" d="M470 773l-400 -998l-55 22l400 998z" />
<glyph unicode="0" d="M403 344q0 -354 -178 -354t-178 354t178 354t178 -354zM320 343q0 144 -19 218t-76 74t-76.5 -75t-19.5 -217q0 -141 19.5 -212.5t76.5 -71.5t76 71.5t19 212.5z" />
<glyph unicode="1" d="M306 0h-85v566q-53 -26 -149 -33l-7 48q64 9 114.5 39.5t67.5 67.5h59v-688z" />
<glyph unicode="2" d="M385 0h-353l212 353q51 85 51 151q0 54 -30 87.5t-86 33.5q-54 0 -93 -27l-26 60q58 40 144 40q81 0 130 -50.5t49 -135.5q0 -77 -71 -188l-157 -247h230v-77z" />
<glyph unicode="3" d="M384 203q0 -88 -55.5 -150.5t-137.5 -62.5q-100 0 -152 40l26 64q37 -31 111 -31q53 0 87 39.5t34 98.5q0 68 -43.5 108.5t-118.5 41.5v52q66 5 106 38t40 86q0 43 -27.5 72t-72.5 29q-53 0 -92 -27l-26 56q52 41 138 41q76 0 119.5 -45.5t43.5 -114.5q0 -101 -91 -148 v-2q44 -19 77.5 -65.5t33.5 -119.5z" />
<glyph unicode="4" d="M403 153h-47v-153h-79v153h-230v65l233 470h76v-473h47v-62zM278 565h-2q-13 -34 -31 -70l-138 -280h169v281z" />
<glyph unicode="5" d="M386 202q0 -87 -55.5 -149.5t-137.5 -62.5q-97 0 -150 40l25 64q41 -32 113 -32q49 0 84 41.5t35 96.5q0 85 -53.5 127.5t-171.5 17.5l24 343h274v-77h-213l-13 -200q113 15 176 -43.5t63 -165.5z" />
<glyph unicode="6" d="M404 204q0 -87 -45.5 -150.5t-130.5 -63.5q-86 0 -133.5 69t-47.5 191q0 91 25 168t59 123.5t78 82t73 50t53 21.5l23 -62q-28 -11 -55.5 -28t-57.5 -44t-55.5 -68t-40.5 -91q32 13 73 13q87 0 134.5 -58t47.5 -153zM322 204q0 70 -29.5 111t-88.5 41q-41 0 -69 -11 q-6 -36 -6 -96q0 -93 25.5 -143t74.5 -50q46 0 69.5 42t23.5 106z" />
<glyph unicode="7" d="M419 688l-82 -220q-109 -293 -145 -468h-105l227 611h-261v77h366z" />
<glyph unicode="8" d="M403 164q0 -77 -52 -125.5t-127 -48.5t-126 48t-51 127q0 60 29.5 103.5t93.5 94.5q-57 49 -80.5 87t-23.5 92q0 68 46 112t112 44t113 -44t47 -112q0 -51 -25.5 -88.5t-85.5 -85.5q68 -56 99 -99.5t31 -104.5zM323 165q0 44 -24 78.5t-80 78.5q-51 -40 -73.5 -75 t-22.5 -80q0 -47 28 -78.5t72 -31.5q43 0 71.5 30.5t28.5 77.5zM311 543q0 39 -25 66.5t-61 27.5q-37 0 -61 -27t-24 -68q0 -35 18.5 -65t64.5 -70q49 39 68.5 68.5t19.5 67.5z" />
<glyph unicode="9" d="M404 437q0 -91 -25 -168t-59.5 -123t-78.5 -82t-73.5 -50.5t-53.5 -21.5l-21 63q63 24 121.5 81t86.5 149q-32 -13 -73 -13q-85 0 -133 58.5t-48 153.5q0 88 45 151t130 63q86 0 134 -70t48 -191zM322 438q0 93 -26 144t-75 51q-47 0 -69.5 -42.5t-22.5 -107.5 q0 -71 29.5 -111.5t87.5 -40.5q38 0 69 11q7 43 7 96z" />
<glyph unicode=":" horiz-adv-x="225" d="M170 51q0 -24 -17 -41.5t-41 -17.5q-23 0 -40.5 17.5t-17.5 41.5q0 25 17 42.5t41 17.5q25 0 41.5 -17t16.5 -43zM170 359q0 -24 -17 -41.5t-41 -17.5q-23 0 -40.5 17.5t-17.5 41.5q0 25 17 42t41 17q25 0 41.5 -17t16.5 -42z" />
<glyph unicode=";" horiz-adv-x="234" d="M179 80l-125 -252h-50l75 251q19 33 60 33q37 0 40 -32zM179 359q0 -24 -17 -41.5t-41 -17.5t-41 17.5t-17 41.5q0 25 17 42.5t41 17.5t41 -17.5t17 -42.5z" />
<glyph unicode="&#x3c;" d="M391 160l-332 143v62l332 143v-68l-275 -106l275 -106v-68z" />
<glyph unicode="=" d="M391 388h-332v60h332v-60zM391 221h-332v59h332v-59z" />
<glyph unicode="&#x3e;" d="M391 303l-332 -143v68l274 106l-274 106v68l332 -142v-63z" />
<glyph unicode="?" horiz-adv-x="382" d="M345 534q0 -58 -38 -98.5t-80 -56.5l-8 -156h-63l-10 185q43 9 77.5 41.5t34.5 79.5q0 39 -23.5 68t-67.5 29q-50 0 -89 -28l-27 59q54 41 129 41q76 0 120.5 -45t44.5 -119zM246 50q0 -24 -17 -41t-42 -17q-23 0 -40.5 17t-17.5 41t17.5 41.5t40.5 17.5q25 0 42 -17 t17 -42z" />
<glyph unicode="@" horiz-adv-x="729" d="M665 410q0 -48 -12 -106.5t-33.5 -114t-57.5 -92.5t-79 -37q-61 0 -64 91q-28 -45 -56 -67t-66 -22q-49 0 -74.5 46t-25.5 112q0 57 18.5 118.5t58.5 109.5t91 48q36 0 53.5 -19.5t38.5 -69.5l13 72h48l-27 -148q-21 -105 -22 -161q0 -37 6 -49t24 -12q37 0 68 61.5 t45 129.5t14 110q0 113 -55.5 180.5t-146.5 67.5q-92 0 -168 -63t-118 -163.5t-42 -212.5q0 -143 75 -228.5t192 -85.5q46 0 87 11.5t66 24.5t52.5 38.5t37 37l28.5 35.5l22 -32l-38.5 -46.5t-42 -41t-55 -38t-68 -22.5t-89.5 -10q-135 0 -221.5 96.5t-86.5 261.5 q0 126 49.5 236t135 176t186.5 66q107 0 173 -77t66 -211zM440 333q1 54 -20.5 84t-50.5 30q-38 0 -66 -40.5t-39.5 -90t-11.5 -93.5q0 -48 16.5 -79.5t49.5 -31.5q37 0 66 40t42 89t14 92z" />
<glyph unicode="A" horiz-adv-x="499" d="M483 0h-90l-52 201h-192l-53 -201h-81l198 688h75zM326 263l-57 226l-22 96h-1q-10 -48 -22 -96l-59 -226h161z" />
<glyph unicode="B" horiz-adv-x="491" d="M446 189q0 -100 -61 -149.5t-153 -49.5q-103 0 -162 40v628q56 40 155 40q91 0 145 -48t54 -128q0 -62 -31 -101t-75 -54v-2q49 -14 88.5 -57t39.5 -119zM357 189q0 77 -40 111t-135 34h-27v-267q29 -12 74 -12q59 0 93.5 34t34.5 100zM338 515q0 122 -113 122 q-42 0 -70 -11v-238h26q83 0 120 28t37 99z" />
<glyph unicode="C" horiz-adv-x="420" d="M394 30q-38 -40 -123 -40q-103 0 -161 99.5t-58 254.5q0 96 25 175t76.5 129t120.5 50q74 0 119 -40l-21 -58q-35 27 -85 27q-73 0 -108 -81.5t-35 -201.5q0 -116 36 -197.5t106 -81.5q53 0 87 28z" />
<glyph unicode="D" horiz-adv-x="522" d="M469 351q0 -165 -60 -263t-181 -98q-110 0 -158 40v628q57 40 155 40q120 0 182 -92.5t62 -254.5zM379 352q0 280 -157 280q-42 0 -64 -11v-549q24 -11 66 -11q81 0 118 72.5t37 218.5z" />
<glyph unicode="E" horiz-adv-x="389" d="M348 0h-278v688h278v-69h-190v-230h171v-68h-171v-252h190v-69z" />
<glyph unicode="F" horiz-adv-x="379" d="M348 619h-190v-230h171v-68h-171v-321h-88v688h278v-69z" />
<glyph unicode="G" horiz-adv-x="515" d="M452 30q-58 -40 -156 -40q-107 0 -175.5 92.5t-68.5 265.5q0 164 70.5 257t176.5 93q95 0 143 -40l-26 -61q-40 30 -109 30q-75 0 -120 -73t-44 -212q0 -121 39.5 -201.5t110.5 -80.5q50 0 72 12v250h-94v67h181v-359z" />
<glyph unicode="H" horiz-adv-x="521" d="M451 0h-90v321h-203v-321h-88v688h88v-300h203v300h90v-688z" />
<glyph unicode="I" horiz-adv-x="232" d="M162 0h-89v688h89v-688z" />
<glyph unicode="J" horiz-adv-x="236" d="M166 31q0 -105 -58.5 -175t-134.5 -79v68q41 11 72 60.5t31 119.5v663h90v-657z" />
<glyph unicode="K" horiz-adv-x="462" d="M450 0h-99l-189 358h-2v-358h-87v688h87v-323h2l187 323h87l-194 -322z" />
<glyph unicode="L" horiz-adv-x="355" d="M335 0h-262v688h89v-619h173v-69z" />
<glyph unicode="M" horiz-adv-x="664" d="M620 0h-83l-41 493l-3 78h-2q-8 -41 -17 -78l-117 -493h-55l-118 492l-17 79h-2q0 -44 -3 -78l-39 -493h-79l67 688h91l112 -466l17 -84h2q7 40 17 83l112 467h91z" />
<glyph unicode="N" horiz-adv-x="555" d="M487 0h-75l-241 501l-29 67h-2q2 -36 2 -66v-502h-72v688h90l225 -470l29 -66h2q-2 36 -2 69v467h73v-688z" />
<glyph unicode="O" horiz-adv-x="534" d="M482 344q0 -101 -20.5 -178t-70.5 -126.5t-124 -49.5t-124 49.5t-70.5 126.5t-20.5 178t20.5 178t70.5 126.5t124 49.5t124 -49.5t70.5 -126.5t20.5 -178zM392 346q0 57 -6 104t-19 89t-38.5 66t-61.5 24t-61.5 -24t-38.5 -66t-19 -89t-6 -104q0 -281 125 -281t125 281z " />
<glyph unicode="P" d="M420 487q0 -99 -60.5 -155t-184.5 -49l-18 1v-284h-87v658q58 40 149 40q100 0 150.5 -56.5t50.5 -154.5zM334 489q0 147 -119 147q-39 0 -58 -10v-279l18 -1q159 -9 159 143z" />
<glyph unicode="Q" horiz-adv-x="534" d="M482 344q0 -237 -108 -321l89 -125l-71 -68l-70 168q-25 -8 -55 -8q-74 0 -124 49.5t-70.5 126.5t-20.5 178t20.5 178t70.5 126.5t124 49.5q75 0 124.5 -49.5t70 -126.5t20.5 -178zM393 347q0 282 -126 282q-125 0 -125 -282q0 -283 125 -283q126 0 126 283z" />
<glyph unicode="R" horiz-adv-x="470" d="M441 0h-99l-183 328h-2v-328h-87v658q53 40 148 40q101 0 151.5 -55t50.5 -155q0 -71 -47.5 -123t-111.5 -57v-2zM334 486q0 76 -28 114t-90 38q-34 0 -60 -12v-279q11 -3 21 -3q65 0 111 33.5t46 108.5z" />
<glyph unicode="S" horiz-adv-x="403" d="M360 177q0 -84 -50 -135.5t-131 -51.5q-90 0 -141 40l24 71q40 -34 105 -34q44 0 72.5 27t28.5 72q0 46 -23.5 79.5t-82.5 80.5q-59 48 -88 94t-29 101q0 79 48 128t120 49q80 0 122 -40l-19 -62q-38 32 -94 32q-41 0 -65.5 -26t-24.5 -71q0 -43 22 -75t79 -77 q64 -51 95.5 -96.5t31.5 -105.5z" />
<glyph unicode="T" horiz-adv-x="358" d="M338 619h-115v-619h-88v619h-115v69h318v-69z" />
<glyph unicode="U" horiz-adv-x="511" d="M441 191q0 -93 -52 -147.5t-134 -54.5q-81 0 -133 55t-52 148v496h88v-508q0 -51 28 -82t73 -31t73.5 31t28.5 82v508h80v-497z" />
<glyph unicode="V" horiz-adv-x="458" d="M436 688l-169 -688h-76l-169 688h91l104 -484l12 -78h2q7 42 15 78l107 484h83z" />
<glyph unicode="W" horiz-adv-x="686" d="M660 688l-136 -688h-75l-91 441l-12 82h-2q-6 -41 -15 -83l-93 -440h-75l-136 688h89l81 -477l9 -78h2q5 39 13 78l97 477h62l96 -476l12 -79h1q6 42 12 79l83 476h78z" />
<glyph unicode="X" horiz-adv-x="435" d="M424 0h-99l-109 275l-1 1l-115 -276h-88l161 353l-143 335h93l97 -251h2l104 251h81l-144 -323z" />
<glyph unicode="Y" horiz-adv-x="430" d="M419 688l-160 -380v-308h-88v308l-160 380h95l112 -298h2l115 298h84z" />
<glyph unicode="Z" horiz-adv-x="387" d="M354 0h-329l214 619h-199v69h312l-210 -619h212v-69z" />
<glyph unicode="[" horiz-adv-x="291" d="M258 -215h-188v1000h188v-57h-114v-886h114v-57z" />
<glyph unicode="\" horiz-adv-x="490" d="M474 -203l-55 -22l-400 997l55 23z" />
<glyph unicode="]" horiz-adv-x="291" d="M221 -215h-188v57h113v886h-113v57h188v-1000z" />
<glyph unicode="^" horiz-adv-x="457" d="M395 482l-30 -37l-136 177l-136 -177l-31 37l125 188q18 26 42 26t41 -26z" />
<glyph unicode="_" d="M460 -205h-470v65h470v-65z" />
<glyph unicode="`" horiz-adv-x="167" d="M128 599h-41l-97 134q5 17 32.5 17t49.5 -17z" />
<glyph unicode="a" horiz-adv-x="432" d="M371 30q-60 -40 -154 -40q-86 0 -130.5 43.5t-44.5 118.5q0 52 19.5 89.5t56 59.5t78 34t96.5 19v26q0 105 -94 105q-58 0 -109 -32l-19 56q60 40 140 40q71 0 116 -42t45 -135v-342zM291 62l1 238q-90 -14 -130.5 -45t-40.5 -102q0 -52 26.5 -79t75.5 -27q42 0 68 15z " />
<glyph unicode="b" horiz-adv-x="455" d="M407 281q0 -134 -53 -212.5t-154 -78.5q-90 0 -139 40v755h83v-260q30 21 86 21q80 0 128.5 -72t48.5 -193zM325 277q0 93 -28.5 152.5t-84.5 59.5q-40 0 -68 -18v-407q24 -11 58 -11q123 0 123 224z" />
<glyph unicode="c" horiz-adv-x="359" d="M332 30q-34 -40 -109 -40q-81 0 -128.5 74t-47.5 206q0 131 49 205t129 74q71 0 106 -40l-18 -54q-28 28 -73 28q-55 0 -81.5 -57t-26.5 -153t28 -154t78 -58q48 0 74 28z" />
<glyph unicode="d" horiz-adv-x="455" d="M394 30q-52 -40 -145 -40q-98 0 -150 72.5t-52 200.5q0 132 55.5 207.5t144.5 75.5q32 0 64 -10v249h83v-755zM311 65v415q-28 8 -49 8q-48 0 -78.5 -32.5t-42 -79t-11.5 -106.5q0 -216 123 -216q41 0 58 11z" />
<glyph unicode="e" horiz-adv-x="454" d="M409 271l-281 -34q4 -87 38 -132.5t93 -45.5q70 0 114 33l21 -62q-51 -40 -141 -40q-95 0 -150.5 71t-55.5 210q0 132 51 205t135 73q87 0 133 -70.5t43 -207.5zM324 319q-3 165 -93 165q-46 0 -76 -51t-30 -140z" />
<glyph unicode="f" horiz-adv-x="275" d="M250 479h-81v-479h-82v479h-48v60h48v72q0 84 43 130t120 44v-63q-36 0 -58.5 -23.5t-22.5 -76.5v-83h81v-60z" />
<glyph unicode="g" horiz-adv-x="455" d="M394 -9q0 -102 -47.5 -159t-130.5 -57q-94 0 -146 40l26 62q43 -32 107 -32q56 0 82.5 37.5t26.5 99.5v33q-32 -24 -88 -24q-80 0 -128.5 72.5t-48.5 194.5q0 134 54 212.5t156 78.5q88 0 137 -40v-518zM312 70v404q-22 12 -60 12q-122 0 -122 -225q0 -94 29.5 -152 t82.5 -58q36 0 70 19z" />
<glyph unicode="h" horiz-adv-x="457" d="M396 0h-83v388q0 47 -23.5 73t-61.5 26q-46 0 -84 -24v-463h-83v785h83v-265q48 29 99 29q70 0 111.5 -41t41.5 -120v-388z" />
<glyph unicode="i" horiz-adv-x="215" d="M149 0h-84v539h84v-539zM156 693q0 -20 -14.5 -34.5t-34.5 -14.5t-34.5 14.5t-14.5 34.5q0 21 14.5 35t34.5 14t34.5 -14t14.5 -35z" />
<glyph unicode="j" horiz-adv-x="212" d="M146 32q0 -112 -49.5 -180t-116.5 -75v64q83 33 83 186v512h83v-507zM154 693q0 -20 -14.5 -34.5t-34.5 -14.5t-34.5 14.5t-14.5 34.5q0 21 14.5 35t34.5 14t34.5 -14t14.5 -35z" />
<glyph unicode="k" horiz-adv-x="424" d="M420 0h-92l-180 284h-2v-284h-82v785h82v-496h2l176 250h83l-182 -250z" />
<glyph unicode="l" horiz-adv-x="217" d="M150 0h-83v785h83v-785z" />
<glyph unicode="m" horiz-adv-x="709" d="M648 0h-84v390q0 45 -22 70.5t-61 25.5q-51 0 -85 -42v-444h-83v389q0 43 -25.5 70.5t-67.5 27.5q-44 0 -76 -15v-472h-83v509q64 40 161 40t139 -59q53 59 141 59q63 0 104.5 -42t41.5 -117v-390z" />
<glyph unicode="n" horiz-adv-x="457" d="M396 0h-83v390q0 97 -89 97q-44 0 -80 -16v-471h-83v509q66 40 170 40q165 0 165 -159v-390z" />
<glyph unicode="o" horiz-adv-x="455" d="M407 269q0 -125 -44.5 -202t-134.5 -77q-91 0 -136 77.5t-45 201.5q0 126 44.5 203t135.5 77t135.5 -77t44.5 -203zM324 270q0 219 -96 219q-97 0 -97 -219q0 -213 97 -213q96 0 96 213z" />
<glyph unicode="p" horiz-adv-x="455" d="M408 276q0 -132 -55.5 -208.5t-144.5 -76.5q-28 0 -63 11v-217h-84v724q57 40 145 40q98 0 150 -72.5t52 -200.5zM325 271q0 98 -29.5 158t-92.5 60q-38 0 -59 -13v-416q29 -9 49 -9q48 0 78.5 34t42 80.5t11.5 105.5z" />
<glyph unicode="q" horiz-adv-x="455" d="M394 -215h-83v229q-29 -23 -87 -23q-81 0 -129 72t-48 195q0 133 54.5 212t154.5 79q90 0 138 -40v-724zM311 70v405q-24 11 -58 11q-123 0 -123 -225q0 -94 29.5 -151.5t83.5 -57.5q37 0 68 18z" />
<glyph unicode="r" horiz-adv-x="281" d="M267 549l-20 -74q-56 23 -103 -6v-469h-83v509q38 23 81 32t125 8z" />
<glyph unicode="s" horiz-adv-x="352" d="M313 137q0 -63 -45 -105t-110 -42q-83 0 -124 40l22 64q34 -34 92 -34q33 0 55 20.5t22 53.5q0 38 -17 60t-60 53q-105 78 -105 160q0 61 38.5 101.5t98.5 40.5q73 0 116 -40l-22 -56q-33 31 -82 31q-28 0 -47 -20.5t-19 -48.5q0 -34 20 -57.5t63 -54.5 q34 -25 53.5 -43.5t35 -51t15.5 -71.5z" />
<glyph unicode="t" horiz-adv-x="279" d="M250 4q-16 -8 -47 -8q-53 0 -84.5 35t-31.5 101v347h-48v60h48v124l82 31v-155h81v-60h-81v-341q0 -77 55 -77q10 0 26 4v-61z" />
<glyph unicode="u" horiz-adv-x="452" d="M391 34q-62 -45 -164 -45q-166 0 -166 178v372h84v-382q0 -50 23 -76t64 -26q43 0 76 21v463h83v-505z" />
<glyph unicode="v" horiz-adv-x="427" d="M400 539l-151 -539h-71l-151 539h86l102 -419h1l106 419h78z" />
<glyph unicode="w" horiz-adv-x="660" d="M629 539l-134 -539h-67l-96 407h-2l-101 -407h-66l-131 539h83l85 -420h2l99 420h66l95 -420h3l87 420h77z" />
<glyph unicode="x" horiz-adv-x="411" d="M389 0h-90l-94 210h-2l-98 -210h-83l141 275l-126 264h86l84 -192h2l90 192h76l-128 -252z" />
<glyph unicode="y" horiz-adv-x="428" d="M401 539l-222 -754h-85l78 215l-145 539h87l94 -428h3l111 428h79z" />
<glyph unicode="z" horiz-adv-x="355" d="M326 0h-302l191 479h-175v60h283l-188 -478h191v-61z" />
<glyph unicode="{" horiz-adv-x="327" d="M280 -129q-168 0 -168 151v160q0 67 -16 93t-49 26v57q33 0 49 25.5t16 91.5v160q0 77 46 113.5t122 36.5v-53q-93 0 -93 -101v-181q0 -101 -75 -120v-2q75 -17 75 -120v-182q0 -101 93 -101v-54z" />
<glyph unicode="|" horiz-adv-x="202" d="M134 -215h-66v1000h66v-1000z" />
<glyph unicode="}" horiz-adv-x="327" d="M280 301q-33 0 -49 -26t-16 -93v-160q0 -151 -168 -151v54q93 0 93 101v182q0 103 75 120v2q-75 19 -75 120v181q0 101 -93 101v53q76 0 122 -36.5t46 -113.5v-160q0 -66 16 -91.5t49 -25.5v-57z" />
<glyph unicode="~" horiz-adv-x="516" d="M438 355q-18 -68 -90 -80q-34 -6 -86.5 26.5t-82.5 27.5q-48 -7 -68 -64l-33 51q23 73 87 82q31 5 61 -10.5t57 -31t51 -11.5q52 9 68 64z" />
<glyph unicode="&#xa1;" horiz-adv-x="274" d="M202 -215h-107l22 465h63zM206 423q0 -25 -16.5 -42t-41.5 -17q-24 0 -41 17t-17 42q0 24 17.5 41t40.5 17q25 0 41.5 -17t16.5 -41z" />
<glyph unicode="&#xa2;" d="M325 129q-25 -31 -78 -35l7 -94h-58l6 95q-61 13 -95 76t-34 165t35 164.5t96 73.5l-7 96h57l-6 -94q50 -6 76 -37l-18 -54q-24 26 -65 26q-85 0 -85 -172q0 -81 22.5 -129t62.5 -48q38 0 65 27z" />
<glyph unicode="&#xa3;" d="M408 0h-357q35 50 59.5 114t24.5 126q0 47 -8 87h-80v58h68q-18 77 -18 129q0 83 47.5 133.5t128.5 50.5q87 0 129 -40l-24 -59q-36 27 -93 27q-54 0 -79.5 -37.5t-25.5 -98.5q0 -59 12 -105h112v-58h-103q7 -49 7 -84q0 -88 -46 -166h246v-77z" />
<glyph unicode="&#xa4;" d="M424 30q-38 -40 -118 -40q-86 0 -136.5 74t-63.5 199l-73 -8v50l70 -7q-1 15 -1 46q0 24 4 68l-73 -8v50l77 -9q18 114 68 183.5t131 69.5q73 0 115 -40l-21 -57q-37 28 -82 28q-100 0 -125 -184l158 9v-50l-162 9q-3 -33 -3 -69q0 -17 2 -47l163 8v-50l-159 8 q22 -199 125 -199q50 0 83 27z" />
<glyph unicode="&#xa5;" d="M423 688l-104 -249l86 7v-43l-97 7l-43 -101l140 7v-44l-138 7v-279h-84v279l-139 -7v44l142 -7l-44 101l-98 -7v43l87 -7l-105 249h95l107 -307h2l112 307h81z" />
<glyph unicode="&#xa6;" horiz-adv-x="201" d="M133 325h-65v350h65v-350zM133 -175h-65v350h65v-350z" />
<glyph unicode="&#xa7;" d="M391 218q0 -51 -30 -97t-68 -73q32 -33 45.5 -63.5t13.5 -71.5q0 -58 -40.5 -98t-98.5 -40q-83 0 -125 40l24 63q33 -33 86 -33q28 0 48.5 19.5t20.5 44.5q0 33 -8 53.5t-36 48.5l-86 86q-72 72 -72 174q0 99 91 169q-18 22 -27 36.5t-16.5 37.5t-7.5 50q0 59 38 96.5 t97 37.5q74 0 114 -40l-23 -55q-29 29 -79 29q-33 0 -50 -19.5t-17 -49.5q0 -48 57 -105l68 -68q44 -44 62.5 -83.5t18.5 -88.5zM317 205q0 39 -10.5 66t-39.5 57l-71 72q-23 -16 -43.5 -47t-20.5 -70q0 -72 52 -124l67 -68q23 16 44.5 48t21.5 66z" />
<glyph unicode="&#xa8;" horiz-adv-x="167" d="M200 651q0 -18 -12.5 -31t-30.5 -13q-17 0 -30 13t-13 31q0 17 13 30t30 13q18 0 30.5 -13t12.5 -30zM53 651q0 -18 -13 -31t-31 -13q-17 0 -29.5 13t-12.5 31q0 17 12.5 30t29.5 13q18 0 31 -13t13 -30z" />
<glyph unicode="&#xa9;" horiz-adv-x="813" d="M760 343q0 -146 -104 -249t-250 -103t-249.5 103t-103.5 249t103.5 249.5t249.5 103.5t250 -103.5t104 -249.5zM720 343q0 130 -92 222t-222 92t-222 -92t-92 -222t92 -221.5t222 -91.5t222 91.5t92 221.5zM572 210q-66 -77 -163 -77q-88 0 -150.5 62.5t-62.5 149.5 q0 88 62.5 150.5t150.5 62.5q99 0 163 -77l-36 -31q-50 60 -127 60q-68 0 -116.5 -48t-48.5 -117q0 -68 48.5 -116t116.5 -48q77 0 126 59z" />
<glyph unicode="&#xaa;" horiz-adv-x="295" d="M260 382q-38 -24 -106 -24q-59 0 -89.5 26t-30.5 71q0 59 46 85.5t126 35.5v16q0 63 -65 63q-37 0 -75 -20l-13 34q39 24 96 24q111 0 111 -106v-205zM206 401v142q-62 -8 -90 -26.5t-28 -60.5q0 -64 71 -64q29 0 47 9z" />
<glyph unicode="&#xab;" horiz-adv-x="459" d="M387 160l-42 -37l-132 211l132 211l42 -37l-106 -174zM233 160l-41 -37l-132 211l132 211l41 -37l-105 -174z" />
<glyph unicode="&#xac;" d="M391 144h-61v161l-271 -1v61h332v-221z" />
<glyph unicode="&#xad;" horiz-adv-x="296" d="M247 295h-198v78h198v-78z" />
<glyph unicode="&#xae;" horiz-adv-x="813" d="M760 343q0 -146 -104 -249t-250 -103t-249.5 103t-103.5 249t103.5 249.5t249.5 103.5t250 -103.5t104 -249.5zM720 343q0 130 -92 222t-222 92t-222 -92t-92 -222t92 -221.5t222 -91.5t222 91.5t92 221.5zM554 138h-53l-143 196h-17l-1 -196h-44v410q38 20 97 20 q55 0 94.5 -31t39.5 -86q0 -52 -33 -82t-87 -33zM481 451q0 43 -29 62t-64 19q-25 0 -48 -9v-155h38q46 0 74.5 20t28.5 63z" />
<glyph unicode="&#xaf;" horiz-adv-x="167" d="M202 624h-237v55h237v-55z" />
<glyph unicode="&#xb0;" horiz-adv-x="404" d="M350 550q0 -62 -43 -105t-105 -43t-105 43t-43 105t43 105t105 43t105 -43t43 -105zM296 550q0 39 -27.5 66.5t-66.5 27.5t-66.5 -27.5t-27.5 -66.5t27.5 -66.5t66.5 -27.5t66.5 27.5t27.5 66.5z" />
<glyph unicode="&#xb1;" d="M391 364h-136v-174h-60v174h-136v60h135v174h60v-174h137v-60zM391 67h-332v60h332v-60z" />
<glyph unicode="&#xb2;" horiz-adv-x="313" d="M268 270h-235l138 217q32 49 32 89q0 31 -18 50.5t-53 19.5q-33 0 -61 -18l-20 41q42 26 97 26q53 0 85.5 -31t32.5 -83q0 -46 -46 -115l-97 -143h145v-53z" />
<glyph unicode="&#xb3;" horiz-adv-x="313" d="M268 394q0 -54 -37 -92.5t-90 -38.5q-66 0 -102 26l20 44q25 -20 72 -20q33 0 54 23t21 57q0 39 -27.5 62.5t-76.5 23.5v38q43 2 68 21t25 50q0 24 -16.5 40.5t-44.5 16.5q-34 0 -60 -17l-20 39q38 27 93 27q49 0 78.5 -28.5t29.5 -70.5q0 -60 -55 -89q68 -33 68 -112z " />
<glyph unicode="&#xb4;" horiz-adv-x="167" d="M176 732l-96 -134h-41l54 133q22 17 50 17.5t33 -16.5z" />
<glyph unicode="&#xb6;" d="M415 641h-27v-856h-50v856h-125v-856h-50v524q-67 12 -105.5 59t-38.5 124q0 96 54.5 146t138.5 50h203v-47z" />
<glyph unicode="&#xb7;" horiz-adv-x="212" d="M164 336q0 -25 -17 -42t-41 -17t-41.5 17t-17.5 42q0 24 17.5 41.5t40.5 17.5q25 0 42 -17.5t17 -41.5z" />
<glyph unicode="&#xb8;" horiz-adv-x="167" d="M180 -106q0 -42 -57 -61.5t-135 -7.5l16 32q45 -5 79.5 5.5t34.5 29.5q0 32 -82 27l16 31q128 10 128 -56z" />
<glyph unicode="&#xb9;" horiz-adv-x="313" d="M219 269h-60v338q-37 -15 -95 -18l-6 34q42 6 74.5 24.5t44.5 40.5h42v-419z" />
<glyph unicode="&#xba;" horiz-adv-x="308" d="M278 527q0 -75 -30.5 -121t-93.5 -46t-93.5 46t-30.5 121t31 121.5t93 46.5q63 0 93.5 -46.5t30.5 -121.5zM221 528q0 131 -67 131t-67 -131q0 -128 67 -128t67 128z" />
<glyph unicode="&#xbb;" horiz-adv-x="459" d="M399 334l-131 -211l-43 37l107 174l-107 174l43 37zM245 334q-56 -96 -131 -211l-42 37l107 174l-107 174l42 37q75 -115 131 -211z" />
<glyph unicode="&#xbc;" horiz-adv-x="687" d="M648 92h-30v-92h-57v92h-147v43l150 284h54v-284h30v-43zM524 677l-283 -688l-54 22l282 689zM200 269h-60v338q-37 -15 -95 -18l-6 34q42 6 74.5 24.5t44.5 40.5h42v-419zM563 334h-2q-7 -21 -16 -38q-82 -155 -85 -161h100v161z" />
<glyph unicode="&#xbd;" horiz-adv-x="687" d="M496 677l-282 -688l-55 22l282 689zM648 0h-235l138 216q32 49 32 90q0 31 -18.5 50t-53.5 19q-33 0 -61 -17l-19 41q40 26 96 26q53 0 85.5 -31.5t32.5 -83.5q0 -47 -46 -114l-97 -144h146v-52zM200 269h-60v338q-37 -15 -95 -18l-6 34q42 6 74.5 24.5t44.5 40.5h42 v-419z" />
<glyph unicode="&#xbe;" horiz-adv-x="687" d="M648 92h-30v-92h-57v92h-147v43l150 284h54v-284h30v-43zM543 677l-282 -688l-55 22l282 689zM267 394q0 -54 -36.5 -92.5t-89.5 -38.5q-66 0 -102 26l19 44q27 -20 73 -20q33 0 54 23t21 57q0 39 -27.5 62.5t-76.5 23.5v38q43 2 68 21t25 50q0 24 -16.5 40.5t-44.5 16.5 q-34 0 -60 -17l-20 39q38 27 93 27q49 0 78.5 -28.5t29.5 -70.5q0 -60 -56 -89q68 -32 68 -112zM563 334h-2q-7 -21 -16 -38q-82 -155 -85 -161h100v161z" />
<glyph unicode="&#xbf;" horiz-adv-x="385" d="M348 -185q-48 -39 -134 -39q-76 0 -119.5 43.5t-43.5 117.5q0 60 37.5 100.5t82.5 58.5l8 154h63l10 -183q-48 -12 -81 -44t-33 -81q0 -41 23 -68t68 -27q55 0 92 25zM269 423q0 -25 -17 -42t-41 -17t-41 17t-17 42q0 24 17 41.5t41 17.5t41 -17.5t17 -41.5z" />
<glyph unicode="&#xc0;" horiz-adv-x="499" d="M483 0h-90l-52 201h-192l-53 -201h-81l198 688h75zM326 263l-57 226l-22 96h-1q-10 -48 -22 -96l-59 -226h161zM274 739h-42l-96 134q4 17 32 17t51 -17z" />
<glyph unicode="&#xc1;" horiz-adv-x="499" d="M483 0h-90l-52 201h-192l-53 -201h-81l198 688h75zM326 263l-57 226l-22 96h-1q-10 -48 -22 -96l-59 -226h161zM364 872l-95 -134h-41l53 133q23 17 50.5 17.5t32.5 -16.5z" />
<glyph unicode="&#xc2;" horiz-adv-x="499" d="M483 0h-90l-52 201h-192l-53 -201h-81l198 688h75zM326 263l-57 226l-22 96h-1q-10 -48 -22 -96l-59 -226h161zM361 755l-20 -21l-91 74l-90 -74l-21 21l83 100q12 15 28 15q15 0 28 -15z" />
<glyph unicode="&#xc3;" horiz-adv-x="499" d="M483 0h-90l-52 201h-192l-53 -201h-81l198 688h75zM326 263l-57 226l-22 96h-1q-10 -48 -22 -96l-59 -226h161zM378 800q-12 -45 -60 -53q-23 -4 -58 17.5t-55 18.5q-31 -5 -46 -43l-27 42q14 49 58 55q25 3 59.5 -18t53.5 -18q34 6 46 43z" />
<glyph unicode="&#xc4;" horiz-adv-x="499" d="M483 0h-90l-52 201h-192l-53 -201h-81l198 688h75zM326 263l-57 226l-22 96h-1q-10 -48 -22 -96l-59 -226h161zM367 790q0 -18 -12.5 -31t-30.5 -13t-30.5 13t-12.5 31t12.5 30.5t30.5 12.5t30.5 -12.5t12.5 -30.5zM220 790q0 -18 -12.5 -31t-31.5 -13q-17 0 -29.5 13 t-12.5 31t12.5 30.5t29.5 12.5q19 0 31.5 -12.5t12.5 -30.5z" />
<glyph unicode="&#xc5;" horiz-adv-x="499" d="M483 0h-90l-52 201h-192l-53 -201h-81l198 688h75zM326 262l-57 227l-22 96h-1q-10 -48 -22 -96l-59 -227h161zM330 813q0 -32 -23.5 -55.5t-55.5 -23.5q-33 0 -56.5 23.5t-23.5 55.5q0 33 23.5 56t56.5 23q32 0 55.5 -23t23.5 -56zM299 813q0 20 -14 34.5t-34 14.5 t-34.5 -14.5t-14.5 -34.5t14.5 -34t34.5 -14t34 14t14 34z" />
<glyph unicode="&#xc6;" horiz-adv-x="629" d="M611 0h-231l-39 200h-190l-68 -200h-83l247 688h308v-72h-220l50 -226h170v-70h-155l53 -248h158v-72zM332 261l-45 237l-12 83h-3q-11 -43 -24 -82l-78 -238h162z" />
<glyph unicode="&#xc7;" horiz-adv-x="420" d="M394 30q-38 -40 -123 -40q-103 0 -161 99.5t-58 254.5q0 96 25 175t76.5 129t120.5 50q74 0 119 -40l-21 -58q-35 27 -85 27q-73 0 -108 -81.5t-35 -201.5q0 -116 36 -197.5t106 -81.5q53 0 87 28zM344 -106q0 -41 -56.5 -60.5t-134.5 -7.5l16 31q44 -5 79 6t35 29 q0 32 -82 28l15 30q128 10 128 -56z" />
<glyph unicode="&#xc8;" horiz-adv-x="389" d="M348 0h-278v688h278v-69h-190v-230h171v-69h-171v-251h190v-69zM241 739h-42l-96 134q4 17 32 17t50 -17z" />
<glyph unicode="&#xc9;" horiz-adv-x="389" d="M348 0h-278v688h278v-69h-190v-230h171v-68h-171v-252h190v-69zM299 872l-95 -134h-41l54 133q22 17 50 17.5t32 -16.5z" />
<glyph unicode="&#xca;" horiz-adv-x="389" d="M348 0h-278v688h278v-69h-190v-230h171v-69h-171v-251h190v-69zM315 755l-21 -21l-91 74l-90 -74l-20 21l83 100q12 15 27 15q17 0 29 -15z" />
<glyph unicode="&#xcb;" horiz-adv-x="390" d="M349 0h-278v688h278v-69h-190v-230h171v-69h-171v-251h190v-69zM179 790q0 -18 -12.5 -31t-30.5 -13t-30.5 13t-12.5 31t12.5 30.5t30.5 12.5t30.5 -12.5t12.5 -30.5zM326 790q0 -18 -12.5 -31t-30.5 -13q-17 0 -29.5 13t-12.5 31t12.5 30.5t29.5 12.5q18 0 30.5 -12.5 t12.5 -30.5z" />
<glyph unicode="&#xcc;" horiz-adv-x="234" d="M172 0h-89v688h89v-688zM158 739h-42l-96 134q4 17 32 17t51 -17z" />
<glyph unicode="&#xcd;" horiz-adv-x="229" d="M158 0h-88v688h88v-688zM217 872l-95 -134h-42l54 133q23 17 50.5 17.5t32.5 -16.5z" />
<glyph unicode="&#xce;" horiz-adv-x="233" d="M160 0h-88v688h88v-688zM227 755l-20 -21l-91 74l-90 -74l-21 21l84 100q12 15 27 15q16 0 28 -15z" />
<glyph unicode="&#xcf;" horiz-adv-x="233" d="M160 0h-88v688h88v-688zM233 790q0 -18 -12.5 -31t-30.5 -13q-17 0 -30 13t-13 31t13 30.5t30 12.5q18 0 30.5 -12.5t12.5 -30.5zM86 790q0 -18 -13 -31t-31 -13q-17 0 -29.5 13t-12.5 31t12.5 30.5t29.5 12.5q18 0 31 -12.5t13 -30.5z" />
<glyph unicode="&#xd0;" horiz-adv-x="538" d="M486 351q0 -101 -22.5 -179.5t-77.5 -130t-138 -51.5q-108 0 -162 40v312l-50 -1v60h50v257q57 40 157 40q118 0 180.5 -92.5t62.5 -254.5zM396 352q0 280 -159 280q-44 0 -63 -9v-222h98v-59h-98v-269q20 -10 66 -10q70 0 113 67t43 222z" />
<glyph unicode="&#xd1;" horiz-adv-x="555" d="M487 0h-75l-241 501l-29 67h-2q2 -36 2 -66v-502h-72v688h90l225 -470l29 -66h2q-2 36 -2 69v467h73v-688zM398 800q-13 -45 -60 -53q-23 -4 -58 17.5t-55 18.5q-31 -4 -46 -43l-28 42q16 50 58 55q26 4 60.5 -17.5t52.5 -18.5q37 6 46 43z" />
<glyph unicode="&#xd2;" horiz-adv-x="534" d="M482 344q0 -101 -20.5 -178t-70.5 -126.5t-124 -49.5t-124 49.5t-70.5 126.5t-20.5 178t20.5 178t70.5 126.5t124 49.5t124 -49.5t70.5 -126.5t20.5 -178zM392 346q0 57 -6 104t-19 89t-38.5 66t-61.5 24t-61.5 -24t-38.5 -66t-19 -89t-6 -104q0 -281 125 -281t125 281z M298 739h-42l-96 134q4 17 32 17t51 -17z" />
<glyph unicode="&#xd3;" horiz-adv-x="534" d="M482 344q0 -101 -20.5 -178t-70.5 -126.5t-124 -49.5t-124 49.5t-70.5 126.5t-20.5 178t20.5 178t70.5 126.5t124 49.5t124 -49.5t70.5 -126.5t20.5 -178zM392 346q0 57 -6 104t-19 89t-38.5 66t-61.5 24t-61.5 -24t-38.5 -66t-19 -89t-6 -104q0 -281 125 -281t125 281z M370 872l-95 -134h-42l55 133q22 17 49.5 17.5t32.5 -16.5z" />
<glyph unicode="&#xd4;" horiz-adv-x="534" d="M482 344q0 -101 -20.5 -178t-70.5 -126.5t-124 -49.5t-124 49.5t-70.5 126.5t-20.5 178t20.5 178t70.5 126.5t124 49.5t124 -49.5t70.5 -126.5t20.5 -178zM392 346q0 57 -6 104t-19 89t-38.5 66t-61.5 24t-61.5 -24t-38.5 -66t-19 -89t-6 -104q0 -281 125 -281t125 281z M378 755l-21 -21l-90 74l-90 -74l-22 21l84 100q12 15 28 15q17 0 27 -15z" />
<glyph unicode="&#xd5;" horiz-adv-x="534" d="M482 344q0 -101 -20.5 -178t-70.5 -126.5t-124 -49.5t-124 49.5t-70.5 126.5t-20.5 178t20.5 178t70.5 126.5t124 49.5t124 -49.5t70.5 -126.5t20.5 -178zM392 346q0 57 -6 104t-19 89t-38.5 66t-61.5 24t-61.5 -24t-38.5 -66t-19 -89t-6 -104q0 -281 125 -281t125 281z M390 800q-13 -45 -60 -53q-23 -4 -58 17.5t-55 18.5q-31 -4 -46 -43l-28 42q16 50 58 55q26 4 60.5 -17.5t52.5 -18.5q37 6 46 43z" />
<glyph unicode="&#xd6;" horiz-adv-x="534" d="M482 344q0 -101 -20.5 -178t-70.5 -126.5t-124 -49.5t-124 49.5t-70.5 126.5t-20.5 178t20.5 178t70.5 126.5t124 49.5t124 -49.5t70.5 -126.5t20.5 -178zM392 346q0 57 -6 104t-19 89t-38.5 66t-61.5 24t-61.5 -24t-38.5 -66t-19 -89t-6 -104q0 -281 125 -281t125 281z M384 790q0 -18 -12.5 -31t-31.5 -13q-17 0 -29.5 13t-12.5 31t12.5 30.5t29.5 12.5q19 0 31.5 -12.5t12.5 -30.5zM236 790q0 -18 -12.5 -31t-30.5 -13q-17 0 -29.5 13t-12.5 31t12.5 30.5t29.5 12.5q18 0 30.5 -12.5t12.5 -30.5z" />
<glyph unicode="&#xd7;" d="M400 158l-49 -37l-126 163l-126 -163l-50 37l137 176l-137 177l50 37l126 -163l126 163l49 -37l-136 -177z" />
<glyph unicode="&#xd8;" horiz-adv-x="567" d="M513 344q0 -99 -23.5 -177t-76.5 -127.5t-129 -49.5q-82 0 -140 59l-60 -112l-28 16l66 122q-67 99 -67 269q0 154 58 254t171 100q81 0 141 -60l58 109l29 -16l-65 -120q66 -100 66 -267zM388 570q-39 70 -104 70q-43 0 -74 -27.5t-46 -74t-21.5 -93t-6.5 -98.5 q0 -112 31 -189zM431 347q0 106 -29 183l-220 -412q39 -63 101 -63q43 0 74 27.5t46 73.5t21.5 92.5t6.5 98.5z" />
<glyph unicode="&#xd9;" horiz-adv-x="511" d="M441 191q0 -93 -52 -147.5t-134 -54.5q-81 0 -133 55t-52 148v496h88v-508q0 -51 28 -82t73 -31t73.5 31t28.5 82v508h80v-497zM296 739h-42l-96 134q4 17 32 17t50 -17z" />
<glyph unicode="&#xda;" horiz-adv-x="511" d="M441 191q0 -93 -52 -147.5t-134 -54.5q-81 0 -133 55t-52 148v496h88v-508q0 -51 28 -82t73 -31t73.5 31t28.5 82v508h80v-497zM352 872l-95 -134h-42l55 133q22 17 50 17.5t32 -16.5z" />
<glyph unicode="&#xdb;" horiz-adv-x="511" d="M441 191q0 -93 -52 -147.5t-134 -54.5q-81 0 -133 55t-52 148v496h88v-508q0 -51 28 -82t73 -31t73.5 31t28.5 82v508h80v-497zM368 755l-21 -21l-91 74l-90 -74l-21 21l84 100q12 15 27 15q16 0 28 -15z" />
<glyph unicode="&#xdc;" horiz-adv-x="511" d="M441 191q0 -93 -52 -147.5t-134 -54.5q-81 0 -133 55t-52 148v496h88v-508q0 -51 28 -82t73 -31t73.5 31t28.5 82v508h80v-497zM228 790q0 -18 -12.5 -31t-30.5 -13t-30.5 13t-12.5 31t12.5 30.5t30.5 12.5t30.5 -12.5t12.5 -30.5zM375 790q0 -18 -12.5 -31t-29.5 -13 q-18 0 -30.5 13t-12.5 31t12.5 30.5t30.5 12.5q17 0 29.5 -12.5t12.5 -30.5z" />
<glyph unicode="&#xdd;" horiz-adv-x="429" d="M418 688l-159 -380v-308h-89v308l-159 380h95l113 -298h1l114 298h84zM320 872l-95 -134h-41l53 133q23 17 50.5 17.5t32.5 -16.5z" />
<glyph unicode="&#xde;" horiz-adv-x="455" d="M419 367q0 -98 -61.5 -154t-180.5 -49l-19 1v-165h-88v688h88v-120q30 10 62 10q97 0 148 -58t51 -153zM331 362q0 73 -31.5 114t-85.5 41q-32 0 -56 -8v-281l19 -1q79 -4 116.5 34t37.5 101z" />
<glyph unicode="&#xdf;" horiz-adv-x="471" d="M432 141q0 -64 -42 -106t-106 -42q-60 0 -89 27l17 61q20 -18 63 -18q33 0 53.5 21.5t20.5 57.5q0 30 -12 51.5t-47 56.5q-37 37 -53 66.5t-16 64.5q0 91 89 122q8 29 8 67q0 160 -82 160q-88 0 -88 -197v-533h-84v528q0 122 44.5 194.5t127.5 72.5q80 0 121.5 -63 t41.5 -162q0 -57 -12 -95q-89 -11 -89 -87q0 -25 13 -45t49 -56q41 -40 56.5 -70.5t15.5 -75.5z" />
<glyph unicode="&#xe0;" horiz-adv-x="432" d="M371 30q-60 -40 -154 -40q-86 0 -130.5 43.5t-44.5 118.5q0 52 19.5 89.5t56 59.5t78 34t96.5 19v26q0 105 -94 105q-58 0 -109 -32l-19 56q60 40 140 40q71 0 116 -42t45 -135v-342zM291 62l1 238q-90 -14 -130.5 -45t-40.5 -102q0 -52 26.5 -79t75.5 -27q42 0 68 15z M259 599h-40l-97 134q4 17 32.5 17t50.5 -17z" />
<glyph unicode="&#xe1;" horiz-adv-x="432" d="M371 30q-60 -40 -154 -40q-86 0 -130.5 43.5t-44.5 118.5q0 52 19.5 89.5t56 59.5t78 34t96.5 19v26q0 105 -94 105q-58 0 -109 -32l-19 56q60 40 140 40q71 0 116 -42t45 -135v-342zM291 62l1 238q-90 -14 -130.5 -45t-40.5 -102q0 -52 26.5 -79t75.5 -27q42 0 68 15z M328 732l-95 -134h-41l54 133q22 17 50 17.5t32 -16.5z" />
<glyph unicode="&#xe2;" horiz-adv-x="432" d="M371 30q-60 -40 -154 -40q-86 0 -130.5 43.5t-44.5 118.5q0 52 19.5 89.5t56 59.5t78 34t96.5 19v26q0 105 -94 105q-58 0 -109 -32l-19 56q60 40 140 40q71 0 116 -42t45 -135v-342zM291 62l1 238q-90 -14 -130.5 -45t-40.5 -102q0 -52 26.5 -79t75.5 -27q42 0 68 15z M330 615l-21 -21l-90 74l-91 -74l-21 21l84 100q12 15 27 15q16 0 28 -15z" />
<glyph unicode="&#xe3;" horiz-adv-x="432" d="M371 30q-60 -40 -154 -40q-86 0 -130.5 43.5t-44.5 118.5q0 52 19.5 89.5t56 59.5t78 34t96.5 19v26q0 105 -94 105q-58 0 -109 -32l-19 56q60 40 140 40q71 0 116 -42t45 -135v-342zM291 62l1 238q-90 -14 -130.5 -45t-40.5 -102q0 -52 26.5 -79t75.5 -27q42 0 68 15z M341 660q-12 -45 -60 -53q-23 -4 -58 17.5t-55 18.5q-32 -5 -45 -43l-28 41q14 49 58 56q26 4 60 -18t53 -19q35 6 46 44z" />
<glyph unicode="&#xe4;" horiz-adv-x="432" d="M371 30q-60 -40 -154 -40q-86 0 -130.5 43.5t-44.5 118.5q0 52 19.5 89.5t56 59.5t78 34t96.5 19v26q0 105 -94 105q-58 0 -109 -32l-19 56q60 40 140 40q71 0 116 -42t45 -135v-342zM291 62l1 238q-90 -14 -130.5 -45t-40.5 -102q0 -52 26.5 -79t75.5 -27q42 0 68 15z M191 651q0 -18 -12.5 -31t-30.5 -13t-30.5 13t-12.5 31q0 17 12.5 30t30.5 13t30.5 -13t12.5 -30zM338 651q0 -18 -12.5 -31t-30.5 -13q-17 0 -29.5 13t-12.5 31q0 17 12.5 30t29.5 13q18 0 30.5 -13t12.5 -30z" />
<glyph unicode="&#xe5;" horiz-adv-x="432" d="M371 30q-60 -40 -154 -40q-86 0 -130.5 43.5t-44.5 118.5q0 52 19.5 89.5t56 59.5t78 34t96.5 19v26q0 105 -94 105q-58 0 -109 -32l-19 56q60 40 140 40q71 0 116 -42t45 -135v-342zM292 62v238q-90 -14 -130.5 -45t-40.5 -102q0 -52 26.5 -79t75.5 -27q41 0 69 15z M301 676q0 -32 -23 -55.5t-56 -23.5q-32 0 -55.5 23.5t-23.5 55.5q0 33 23.5 56t55.5 23q33 0 56 -23t23 -56zM270 676q0 20 -14 34.5t-34 14.5t-34.5 -14.5t-14.5 -34.5t14.5 -34t34.5 -14t34 14t14 34z" />
<glyph unicode="&#xe6;" horiz-adv-x="689" d="M644 271l-276 -34q4 -89 37.5 -134t91.5 -45q68 0 113 33l21 -61q-50 -40 -141 -40q-49 0 -90 24t-60 64q-35 -88 -133 -88q-81 0 -122.5 43.5t-41.5 119.5q0 96 60.5 141.5t189.5 59.5v27q0 52 -27.5 78t-71.5 26q-56 0 -103 -33l-18 57q52 40 134 40q99 0 133 -84 q43 84 131 84q85 0 130.5 -70.5t42.5 -207.5zM293 148v151q-95 -11 -133.5 -42.5t-38.5 -101.5q0 -51 24 -78t66 -27q34 0 58 27t24 71zM561 318q-1 167 -94 167q-46 0 -74.5 -51t-28.5 -141z" />
<glyph unicode="&#xe7;" horiz-adv-x="359" d="M332 30q-34 -40 -109 -40q-81 0 -128.5 74t-47.5 206q0 131 49 205t129 74q71 0 106 -40l-18 -54q-28 28 -73 28q-55 0 -81.5 -57t-26.5 -153t28 -154t78 -58q48 0 74 28zM290 -106q0 -41 -56.5 -60.5t-134.5 -7.5l16 31q44 -5 79 6t35 29q0 32 -82 28l16 30 q127 10 127 -56z" />
<glyph unicode="&#xe8;" horiz-adv-x="454" d="M409 271l-281 -34q4 -87 38 -132.5t93 -45.5q70 0 114 33l21 -62q-51 -40 -141 -40q-95 0 -150.5 71t-55.5 210q0 132 51 205t135 73q87 0 133 -70.5t43 -207.5zM324 319q-3 165 -93 165q-46 0 -76 -51t-30 -140zM264 599h-40l-97 134q4 17 32 17t50 -17z" />
<glyph unicode="&#xe9;" horiz-adv-x="454" d="M409 271l-281 -34q4 -87 38 -132.5t93 -45.5q70 0 114 33l21 -62q-51 -40 -141 -40q-95 0 -150.5 71t-55.5 210q0 132 51 205t135 73q87 0 133 -70.5t43 -207.5zM324 319q-3 165 -93 165q-46 0 -76 -51t-30 -140zM340 732l-95 -134h-41l53 133q23 17 50.5 17.5 t32.5 -16.5z" />
<glyph unicode="&#xea;" horiz-adv-x="454" d="M409 271l-281 -34q4 -87 38 -132.5t93 -45.5q70 0 114 33l21 -62q-51 -40 -141 -40q-95 0 -150.5 71t-55.5 210q0 132 51 205t135 73q87 0 133 -70.5t43 -207.5zM324 319q-3 165 -93 165q-46 0 -76 -51t-30 -140zM344 615l-20 -21l-90 74l-91 -74l-21 21l83 100 q12 15 28 15t28 -15z" />
<glyph unicode="&#xeb;" horiz-adv-x="454" d="M409 271l-281 -34q4 -87 38 -132.5t93 -45.5q70 0 114 33l21 -62q-51 -40 -141 -40q-95 0 -150.5 71t-55.5 210q0 132 51 205t135 73q87 0 133 -70.5t43 -207.5zM324 319q-3 165 -93 165q-46 0 -76 -51t-30 -140zM205 651q0 -18 -12.5 -31t-30.5 -13t-30.5 13t-12.5 31 q0 17 12.5 30t30.5 13t30.5 -13t12.5 -30zM352 651q0 -18 -12.5 -31t-30.5 -13t-30 13t-12 31t12 30.5t30 12.5t30.5 -13t12.5 -30z" />
<glyph unicode="&#xec;" horiz-adv-x="213" d="M153 0h-82v539h82v-539zM149 599h-40l-97 134q4 17 32.5 17t50.5 -17z" />
<glyph unicode="&#xed;" horiz-adv-x="212" d="M147 0h-83v539h83v-539zM200 732l-95 -134h-41l54 133q22 17 49.5 17.5t32.5 -16.5z" />
<glyph unicode="&#xee;" horiz-adv-x="215" d="M149 0h-82v539h82v-539zM219 615l-20 -21l-91 74l-90 -74l-21 21l83 100q12 15 28 15t28 -15z" />
<glyph unicode="&#xef;" horiz-adv-x="229" d="M155 0h-83v539h83v-539zM84 651q0 -18 -13 -31t-30 -13q-18 0 -30.5 13t-12.5 31q0 17 12.5 30t30.5 13q17 0 30 -13t13 -30zM231 651q0 -18 -12.5 -31t-30.5 -13q-17 0 -30 13t-13 31q0 17 13 30t30 13q18 0 30.5 -13t12.5 -30z" />
<glyph unicode="&#xf0;" horiz-adv-x="448" d="M401 268q0 -128 -42.5 -204t-130.5 -76q-87 0 -135.5 74t-48.5 205q0 73 15.5 133t57 103t103.5 43q29 0 53 -8q-25 75 -54 129l-75 -27q-14 29 -22 39l74 27q-19 33 -42 63l71 27q21 -27 42 -63l65 24q12 -16 23 -38l-66 -25q112 -211 112 -426zM319 271q0 106 -31 210 q-26 8 -56 8q-58 0 -81 -59t-23 -162q0 -213 99 -213q92 0 92 216z" />
<glyph unicode="&#xf1;" horiz-adv-x="457" d="M396 0h-83v390q0 97 -89 97q-44 0 -80 -16v-471h-83v508q67 41 172 41q163 0 163 -159v-390zM348 660q-13 -45 -61 -53q-23 -4 -58 17.5t-55 18.5q-30 -4 -45 -43l-28 41q14 49 58 56q26 4 60.5 -18t52.5 -19q35 6 46 44z" />
<glyph unicode="&#xf2;" horiz-adv-x="455" d="M407 269q0 -125 -44.5 -202t-134.5 -77q-91 0 -136 77.5t-45 201.5q0 126 44.5 203t135.5 77t135.5 -77t44.5 -203zM324 270q0 219 -96 219q-97 0 -97 -219q0 -213 97 -213q96 0 96 213zM261 599h-40l-97 134q4 17 32 17t50 -17z" />
<glyph unicode="&#xf3;" horiz-adv-x="455" d="M407 269q0 -125 -44.5 -202t-134.5 -77q-91 0 -136 77.5t-45 201.5q0 126 44.5 203t135.5 77t135.5 -77t44.5 -203zM324 270q0 219 -96 219q-97 0 -97 -219q0 -213 97 -213q96 0 96 213zM333 732l-95 -134h-42l55 133q22 17 49.5 17.5t32.5 -16.5z" />
<glyph unicode="&#xf4;" horiz-adv-x="455" d="M407 269q0 -125 -44.5 -202t-134.5 -77q-91 0 -136 77.5t-45 201.5q0 126 44.5 203t135.5 77t135.5 -77t44.5 -203zM324 270q0 219 -96 219q-97 0 -97 -219q0 -213 97 -213q96 0 96 213zM339 615l-20 -21l-90 74l-91 -74l-21 21l83 100q12 15 28 15t28 -15z" />
<glyph unicode="&#xf5;" horiz-adv-x="455" d="M407 269q0 -125 -44.5 -202t-134.5 -77q-91 0 -136 77.5t-45 201.5q0 126 44.5 203t135.5 77t135.5 -77t44.5 -203zM324 270q0 219 -96 219q-97 0 -97 -219q0 -213 97 -213q96 0 96 213zM348 660q-12 -45 -60 -53q-23 -4 -58 17.5t-55 18.5q-31 -5 -46 -43l-27 41 q15 50 58 56q26 4 60 -18t53 -19q35 6 46 44z" />
<glyph unicode="&#xf6;" horiz-adv-x="455" d="M407 269q0 -125 -44.5 -202t-134.5 -77q-91 0 -136 77.5t-45 201.5q0 126 44.5 203t135.5 77t135.5 -77t44.5 -203zM324 270q0 219 -96 219q-97 0 -97 -219q0 -213 97 -213q96 0 96 213zM197 651q0 -17 -13 -30t-31 -13q-17 0 -29.5 13t-12.5 30q0 18 12.5 31t29.5 13 q18 0 31 -13t13 -31zM344 651q0 -17 -12.5 -30t-30.5 -13q-17 0 -29.5 13t-12.5 30q0 18 12.5 31t29.5 13q18 0 30.5 -13t12.5 -31z" />
<glyph unicode="&#xf7;" d="M391 308h-332v52h332v-52zM278 176q0 -22 -15.5 -37t-37.5 -15q-21 0 -36.5 15t-15.5 37t15.5 37.5t36.5 15.5q22 0 37.5 -15.5t15.5 -37.5zM277 493q0 -22 -15.5 -37t-36.5 -15q-22 0 -37.5 15t-15.5 37t15.5 37t37.5 15q21 0 36.5 -15t15.5 -37z" />
<glyph unicode="&#xf8;" horiz-adv-x="460" d="M410 269q0 -124 -44.5 -201.5t-135.5 -77.5q-61 0 -107 41l-50 -97l-23 12l54 106q-54 77 -54 217q0 125 45 202.5t135 77.5q61 0 107 -41l50 97l22 -12l-54 -106q55 -74 55 -218zM306 452q-31 45 -76 45q-108 0 -108 -227q0 -89 21 -146zM338 270q0 95 -20 151 l-162 -328q29 -42 74 -42q108 0 108 219z" />
<glyph unicode="&#xf9;" horiz-adv-x="452" d="M391 34q-62 -45 -164 -45q-166 0 -166 178v372h84v-382q0 -50 23 -76t64 -26q43 0 76 21v463h83v-505zM262 599h-40l-97 134q5 17 32.5 17t50.5 -17z" />
<glyph unicode="&#xfa;" horiz-adv-x="452" d="M391 34q-62 -45 -164 -45q-166 0 -166 178v372h84v-382q0 -50 23 -76t64 -26q43 0 76 21v463h83v-505zM325 732l-95 -134h-42l54 133q23 17 50.5 17.5t32.5 -16.5z" />
<glyph unicode="&#xfb;" horiz-adv-x="452" d="M391 34q-62 -45 -164 -45q-166 0 -166 178v372h84v-382q0 -50 23 -76t64 -26q43 0 76 21v463h83v-505zM338 615l-21 -21l-90 74l-91 -74l-21 21l84 100q12 15 27 15q16 0 28 -15z" />
<glyph unicode="&#xfc;" horiz-adv-x="452" d="M391 34q-62 -45 -164 -45q-166 0 -166 178v372h84v-382q0 -50 23 -76t64 -26q43 0 76 21v463h83v-505zM196 651q0 -18 -13 -31t-31 -13q-17 0 -29.5 13t-12.5 31q0 17 12.5 30t29.5 13q18 0 31 -13t13 -30zM343 651q0 -18 -12.5 -31t-30.5 -13q-17 0 -29.5 13t-12.5 31 q0 17 12.5 30t29.5 13q18 0 30.5 -13t12.5 -30z" />
<glyph unicode="&#xfd;" horiz-adv-x="430" d="M403 539l-222 -754h-85l78 215l-145 539h87l94 -428h3l111 428h79zM318 732l-95 -134h-42l55 133q22 17 50 17.5t32 -16.5z" />
<glyph unicode="&#xfe;" horiz-adv-x="452" d="M406 276q0 -132 -55.5 -207.5t-144.5 -75.5q-37 0 -64 10v-218h-83v1000h82v-256q28 18 75 18q91 0 140.5 -72t49.5 -199zM323 271q0 98 -29 157.5t-92 59.5q-36 0 -60 -16v-411q35 -8 48 -8q49 0 80 34t42 80.5t11 103.5z" />
<glyph unicode="&#xff;" horiz-adv-x="430" d="M403 539l-222 -754h-85l78 215l-145 539h87l94 -428h3l111 428h79zM336 649q0 -18 -12.5 -30.5t-30.5 -12.5t-30.5 12.5t-12.5 30.5t12.5 30.5t30.5 12.5t30.5 -12.5t12.5 -30.5zM188 649q0 -18 -12.5 -30.5t-30.5 -12.5q-17 0 -29.5 12.5t-12.5 30.5t12.5 30.5 t29.5 12.5q18 0 30.5 -12.5t12.5 -30.5z" />
<glyph unicode="&#x131;" horiz-adv-x="209" d="M146 0h-83v539h83v-539z" />
<glyph unicode="&#x141;" horiz-adv-x="363" d="M342 0h-260v401l-52 -32v61l52 31v227h88v-186l62 36v-59l-62 -36v-374h172v-69z" />
<glyph unicode="&#x142;" horiz-adv-x="256" d="M230 479l-61 -36v-443h-83v404l-59 -37v62l59 34v322h83v-283l61 36v-59z" />
<glyph unicode="&#x152;" horiz-adv-x="674" d="M633 0h-274q-26 -10 -71 -10q-79 0 -133.5 49.5t-78.5 127t-24 177.5t24 177.5t78.5 127t133.5 49.5q46 0 72 -10h273v-72h-190v-226h171v-71h-171v-247h190v-72zM357 74v540q-24 17 -68 17q-43 0 -73 -27t-45 -72.5t-21.5 -91t-6.5 -95.5t6.5 -95t21.5 -89.5t45 -71 t73 -26.5q48 0 68 11z" />
<glyph unicode="&#x153;" horiz-adv-x="721" d="M676 271l-276 -34q7 -103 45.5 -142t85.5 -39q75 0 119 33l18 -59q-49 -40 -144 -40q-109 0 -160 105q-43 -105 -138 -105q-89 0 -134 77.5t-45 201.5q0 125 45 202.5t133 77.5q94 0 138 -100q46 100 140 100q176 0 173 -278zM325 270q0 42 -3 74.5t-12 68t-30 55 t-52 19.5q-97 0 -97 -217q0 -214 97 -214t97 214zM594 321q1 81 -24 124.5t-71 43.5t-74.5 -51t-28.5 -142z" />
<glyph unicode="&#x160;" horiz-adv-x="403" d="M360 177q0 -84 -50 -135.5t-131 -51.5q-90 0 -141 40l24 71q40 -34 105 -34q44 0 72.5 27t28.5 72q0 46 -23.5 79.5t-82.5 80.5q-59 48 -88 94t-29 101q0 79 48 128t120 49q80 0 122 -40l-19 -62q-38 32 -94 32q-41 0 -65.5 -26t-24.5 -71q0 -43 22 -75t79 -77 q64 -51 95.5 -96.5t31.5 -105.5zM312 851l-83 -101q-12 -15 -28 -15t-28 15l-83 101l21 21l91 -74l90 74z" />
<glyph unicode="&#x161;" horiz-adv-x="352" d="M313 137q0 -63 -45 -105t-110 -42q-83 0 -124 40l22 64q34 -34 92 -34q33 0 55 20.5t22 53.5q0 38 -17 60t-60 53q-105 78 -105 160q0 61 38.5 101.5t98.5 40.5q73 0 116 -40l-22 -56q-33 31 -82 31q-28 0 -47 -20.5t-19 -48.5q0 -34 20 -57.5t63 -54.5 q34 -25 53.5 -43.5t35 -51t15.5 -71.5zM288 710l-83 -101q-11 -14 -28 -14t-28 14l-83 101l21 21l90 -74l91 74z" />
<glyph unicode="&#x178;" horiz-adv-x="430" d="M418 688l-159 -380v-308h-88v308l-160 380h95l113 -298h2l114 298h83zM336 790q0 -18 -12.5 -31t-31.5 -13q-17 0 -29.5 13t-12.5 31t12.5 30.5t29.5 12.5q19 0 31.5 -12.5t12.5 -30.5zM188 790q0 -18 -12.5 -31t-30.5 -13q-17 0 -29.5 13t-12.5 31t12.5 30.5t29.5 12.5 q18 0 30.5 -12.5t12.5 -30.5z" />
<glyph unicode="&#x17d;" horiz-adv-x="387" d="M354 0h-329l214 619h-198v69h311l-210 -619h212v-69zM303 851l-83 -101q-13 -15 -28 -15q-16 0 -28 15l-83 101l21 21l90 -74l91 74z" />
<glyph unicode="&#x17e;" horiz-adv-x="354" d="M325 0h-302l192 479h-176v60h283l-187 -478h190v-61zM286 710l-83 -101q-11 -14 -28 -14t-28 14l-83 101l21 21l90 -74l91 74z" />
<glyph unicode="&#x192;" horiz-adv-x="480" d="M445 683l-10 -62q-17 9 -48 9q-19 0 -33 -11.5t-23.5 -35.5t-14.5 -46t-11 -57l-11 -67h92v-60h-102l-56 -351q-35 -224 -160 -224q-40 0 -59 14l9 65q16 -8 39 -8q36 0 56 41t35 135l53 328h-91v60h101l13 77q6 38 13 65t18.5 56t27 46.5t39 29t54.5 11.5q36 0 69 -15z " />
<glyph unicode="&#x2c6;" horiz-adv-x="167" d="M194 615l-20 -21l-91 74l-90 -74l-21 21l84 100q12 15 27 15q16 0 28 -15z" />
<glyph unicode="&#x2c7;" horiz-adv-x="167" d="M194 710l-83 -101q-12 -14 -28 -14q-15 0 -27 14l-84 101l21 21l90 -74l91 74z" />
<glyph unicode="&#x2d8;" horiz-adv-x="167" d="M194 716q0 -43 -28 -80.5t-83 -37.5q-56 0 -83.5 38t-27.5 80l28 11q9 -35 31.5 -54t50.5 -19q29 0 52.5 19.5t32.5 53.5z" />
<glyph unicode="&#x2d9;" horiz-adv-x="167" d="M132 677q0 -20 -14.5 -34t-34.5 -14t-34 14t-14 34t14 34.5t34 14.5t34.5 -14.5t14.5 -34.5z" />
<glyph unicode="&#x2da;" horiz-adv-x="167" d="M162 676q0 -32 -23 -55.5t-56 -23.5t-56 23.5t-23 55.5q0 33 23 56t56 23t56 -23t23 -56zM132 676q0 20 -14.5 34.5t-34.5 14.5t-34.5 -14.5t-14.5 -34.5t14.5 -34t34.5 -14t34.5 14t14.5 34z" />
<glyph unicode="&#x2db;" horiz-adv-x="167" d="M209 -149q-38 -20 -74 -23.5t-59.5 10.5t-23.5 43q0 37 19 63t70 58h49q-38 -21 -58.5 -49t-20.5 -54q0 -22 25.5 -28t65.5 11z" />
<glyph unicode="&#x2dc;" horiz-adv-x="167" d="M207 660q-13 -45 -60 -53q-23 -4 -58.5 17.5t-55.5 18.5q-30 -4 -45 -43l-28 41q14 49 58 56q26 4 60.5 -18t52.5 -19q34 6 47 44z" />
<glyph unicode="&#x2dd;" horiz-adv-x="167" d="M228 725l-119 -127h-35l83 126q16 16 46 16q27 0 25 -15zM118 725l-119 -127h-35l83 126q16 16 46 16q25 0 25 -15z" />
<glyph unicode="&#x3bc;" horiz-adv-x="457" d="M396 34q-62 -42 -152 -42q-45 0 -100 31v-238h-83v754h83v-459q40 -27 85 -27q49 0 84 21v465h83v-505z" />
<glyph unicode="&#x2000;" horiz-adv-x="446" />
<glyph unicode="&#x2001;" horiz-adv-x="892" />
<glyph unicode="&#x2002;" horiz-adv-x="446" />
<glyph unicode="&#x2003;" horiz-adv-x="892" />
<glyph unicode="&#x2004;" horiz-adv-x="297" />
<glyph unicode="&#x2005;" horiz-adv-x="223" />
<glyph unicode="&#x2006;" horiz-adv-x="148" />
<glyph unicode="&#x2007;" horiz-adv-x="148" />
<glyph unicode="&#x2008;" horiz-adv-x="111" />
<glyph unicode="&#x2009;" horiz-adv-x="178" />
<glyph unicode="&#x200a;" horiz-adv-x="49" />
<glyph unicode="&#x2010;" horiz-adv-x="296" d="M247 295h-198v78h198v-78z" />
<glyph unicode="&#x2011;" horiz-adv-x="296" d="M247 295h-198v78h198v-78z" />
<glyph unicode="&#x2012;" horiz-adv-x="296" d="M247 295h-198v78h198v-78z" />
<glyph unicode="&#x2013;" horiz-adv-x="333" d="M333 305l-333 -1v61h333v-60z" />
<glyph unicode="&#x2014;" horiz-adv-x="665" d="M665 309h-665v50h665v-50z" />
<glyph unicode="&#x2018;" horiz-adv-x="252" d="M214 785l-74 -248q-18 -34 -59 -34q-36 0 -41 32l124 250h50z" />
<glyph unicode="&#x2019;" horiz-adv-x="252" d="M212 758l-124 -250h-50l74 248q20 34 59 34q36 0 41 -32z" />
<glyph unicode="&#x201a;" horiz-adv-x="252" d="M212 80l-124 -250h-50l74 249q19 33 59 33q36 0 41 -32z" />
<glyph unicode="&#x201c;" horiz-adv-x="486" d="M416 785l-74 -248q-18 -34 -59 -34q-36 0 -41 32l124 250h50zM246 785l-74 -248q-18 -34 -59 -34q-36 0 -41 32l124 250h50z" />
<glyph unicode="&#x201d;" horiz-adv-x="486" d="M414 758l-124 -251h-50l74 249q19 33 59 33q36 0 41 -31zM244 758l-124 -251h-50l74 249q19 33 59 33q36 0 41 -31z" />
<glyph unicode="&#x201e;" horiz-adv-x="486" d="M414 80l-124 -250h-50l74 249q19 33 59 33q36 0 41 -32zM244 80l-124 -250h-50l74 249q19 33 59 33q36 0 41 -32z" />
<glyph unicode="&#x2020;" horiz-adv-x="476" d="M431 460l-160 7l8 -682h-82l7 682l-159 -7v80l159 -7l-7 252h82l-8 -252l160 7v-80z" />
<glyph unicode="&#x2021;" horiz-adv-x="476" d="M431 53l-160 7l8 -275h-82l7 275l-159 -7v80l159 -7l-1 169l1 175l-159 -7v80l159 -7l-7 249h82l-8 -249l160 7v-80l-160 7l2 -175l-2 -169l160 7v-80z" />
<glyph unicode="&#x2022;" horiz-adv-x="349" d="M283 354q0 -45 -32 -77t-76 -32q-46 0 -78 32t-32 77t32 77t78 32q44 0 76 -32t32 -77z" />
<glyph unicode="&#x2026;" horiz-adv-x="834" d="M753 51q0 -24 -17 -41.5t-41 -17.5t-41 17.5t-17 41.5q0 25 17 42.5t41 17.5q25 0 41.5 -17t16.5 -43zM475 51q0 -24 -17 -41.5t-41 -17.5t-41 17.5t-17 41.5q0 25 17 42.5t41 17.5q25 0 41.5 -17t16.5 -43zM197 51q0 -24 -17 -41.5t-41 -17.5t-41 17.5t-17 41.5 q0 25 17 42.5t41 17.5q25 0 41.5 -17t16.5 -43z" />
<glyph unicode="&#x202f;" horiz-adv-x="178" />
<glyph unicode="&#x2030;" horiz-adv-x="987" d="M652 226q0 -236 -114 -236q-115 0 -115 236q2 236 115 236q112 0 114 -236zM278 462q0 -236 -114 -236t-114 236t114 236t114 -236zM938 226q0 -236 -114 -236t-114 236q2 236 114 236t114 -236zM598 226q3 196 -60 196q-60 0 -60 -196q0 -190 60 -190t60 190zM883 226 q3 196 -59 196q-63 0 -60 -196q0 -190 60 -190q59 0 59 190zM224 462q0 196 -60 196t-60 -196q0 -189 60 -189t60 189zM470 682l-196 -688l-44 12l195 688z" />
<glyph unicode="&#x2039;" horiz-adv-x="257" d="M209 160l-41 -37l-132 211l132 211l41 -37l-105 -174z" />
<glyph unicode="&#x203a;" horiz-adv-x="257" d="M221 334q-56 -96 -131 -211l-42 37l107 174l-107 174l42 37q75 -115 131 -211z" />
<glyph unicode="&#x2044;" horiz-adv-x="106" d="M222 677l-283 -688l-54 22l282 689z" />
<glyph unicode="&#x205f;" horiz-adv-x="223" />
<glyph unicode="&#x20a0;" d="M425 169l-34 -37l-44 47q-52 -45 -122 -45t-121 45l-45 -47l-34 37l44 49q-42 52 -42 131t42 131l-44 49l34 37l45 -47q51 45 121 45t122 -45l44 47l34 -37l-44 -49q42 -52 42 -131t-42 -131zM366 349q0 66 -40 112.5t-101 46.5t-101 -46.5t-40 -112.5q0 -65 40.5 -112 t100.5 -47q61 0 101 46.5t40 112.5z" />
<glyph unicode="&#x20ac;" d="M424 30q-38 -40 -118 -40q-86 0 -136.5 74t-63.5 199l-73 -8v50l70 -7q-1 15 -1 46q0 24 4 68l-73 -8v50l77 -9q18 114 68 183.5t131 69.5q73 0 115 -40l-21 -57q-37 28 -82 28q-100 0 -125 -184l158 9v-50l-162 9q-3 -33 -3 -69q0 -17 2 -47l163 8v-50l-159 8 q22 -199 125 -199q50 0 83 27z" />
<glyph unicode="&#x2122;" horiz-adv-x="676" d="M607 355h-44l-29 291l-76 -291h-42l-76 291l-28 -291h-43l38 333h61l70 -277l69 277h62zM251 649h-80v-294h-45v294h-82v39h207v-39z" />
<glyph unicode="&#x2212;" d="M391 304h-332v61h332v-61z" />
<glyph unicode="&#xe000;" horiz-adv-x="540" d="M0 540h540v-540h-540v540z" />
<glyph unicode="&#xfb01;" horiz-adv-x="463" d="M250 479h-81v-479h-82v479h-48v60h48v72q0 84 43 130t120 44v-63q-36 0 -58.5 -23.5t-22.5 -76.5v-83h81v-60zM397 0h-83v539h83v-539zM405 693q0 -20 -14.5 -34.5t-34.5 -14.5t-34.5 14.5t-14.5 34.5q0 21 14.5 35t34.5 14t34.5 -14t14.5 -35z" />
<glyph unicode="&#xfb02;" horiz-adv-x="464" d="M250 479h-81v-479h-82v479h-48v60h48v72q0 84 43 130t120 44v-63q-36 0 -58.5 -23.5t-22.5 -76.5v-83h81v-60zM397 0h-83v785h83v-785z" />
<glyph unicode="&#xfffd;" horiz-adv-x="212" />
</font>
</defs>
</svg>
